<mxfile host="Electron" modified="2024-02-25T20:35:26.376Z" agent="Mozilla/5.0 (Windows NT 10.0; Win64; x64) AppleWebKit/537.36 (KHTML, like Gecko) draw.io/23.0.2 Chrome/120.0.6099.109 Electron/28.1.0 Safari/537.36" etag="TRR-SB_ht9-kkxLKfBkR" version="23.0.2" type="device">
  <diagram name="Page-1" id="VvhWam94fAn058fj7BaD">
    <mxGraphModel dx="2957" dy="725" grid="1" gridSize="10" guides="1" tooltips="1" connect="1" arrows="1" fold="1" page="1" pageScale="1" pageWidth="1700" pageHeight="1100" math="0" shadow="0">
      <root>
        <mxCell id="0" />
        <mxCell id="1" parent="0" />
        <mxCell id="djq6IaJUHDn9vAA4K8EV-1" value="order_items" style="shape=table;startSize=30;container=1;collapsible=1;childLayout=tableLayout;fixedRows=1;rowLines=0;fontStyle=1;align=center;resizeLast=1;html=1;" vertex="1" parent="1">
          <mxGeometry x="120" y="920" width="480" height="150" as="geometry" />
        </mxCell>
        <mxCell id="djq6IaJUHDn9vAA4K8EV-2" value="" style="shape=tableRow;horizontal=0;startSize=0;swimlaneHead=0;swimlaneBody=0;fillColor=none;collapsible=0;dropTarget=0;points=[[0,0.5],[1,0.5]];portConstraint=eastwest;top=0;left=0;right=0;bottom=1;" vertex="1" parent="djq6IaJUHDn9vAA4K8EV-1">
          <mxGeometry y="30" width="480" height="30" as="geometry" />
        </mxCell>
        <mxCell id="djq6IaJUHDn9vAA4K8EV-3" value="PK" style="shape=partialRectangle;connectable=0;fillColor=none;top=0;left=0;bottom=0;right=0;fontStyle=1;overflow=hidden;whiteSpace=wrap;html=1;" vertex="1" parent="djq6IaJUHDn9vAA4K8EV-2">
          <mxGeometry width="30" height="30" as="geometry">
            <mxRectangle width="30" height="30" as="alternateBounds" />
          </mxGeometry>
        </mxCell>
        <mxCell id="djq6IaJUHDn9vAA4K8EV-4" value="id" style="shape=partialRectangle;connectable=0;fillColor=none;top=0;left=0;bottom=0;right=0;align=left;spacingLeft=6;fontStyle=5;overflow=hidden;whiteSpace=wrap;html=1;" vertex="1" parent="djq6IaJUHDn9vAA4K8EV-2">
          <mxGeometry x="30" width="450" height="30" as="geometry">
            <mxRectangle width="450" height="30" as="alternateBounds" />
          </mxGeometry>
        </mxCell>
        <mxCell id="djq6IaJUHDn9vAA4K8EV-5" value="" style="shape=tableRow;horizontal=0;startSize=0;swimlaneHead=0;swimlaneBody=0;fillColor=none;collapsible=0;dropTarget=0;points=[[0,0.5],[1,0.5]];portConstraint=eastwest;top=0;left=0;right=0;bottom=0;" vertex="1" parent="djq6IaJUHDn9vAA4K8EV-1">
          <mxGeometry y="60" width="480" height="30" as="geometry" />
        </mxCell>
        <mxCell id="djq6IaJUHDn9vAA4K8EV-6" value="FK" style="shape=partialRectangle;connectable=0;fillColor=none;top=0;left=0;bottom=0;right=0;editable=1;overflow=hidden;whiteSpace=wrap;html=1;" vertex="1" parent="djq6IaJUHDn9vAA4K8EV-5">
          <mxGeometry width="30" height="30" as="geometry">
            <mxRectangle width="30" height="30" as="alternateBounds" />
          </mxGeometry>
        </mxCell>
        <mxCell id="djq6IaJUHDn9vAA4K8EV-7" value="order_id INTEGER REFERENCES orders(id) NOT NULL" style="shape=partialRectangle;connectable=0;fillColor=none;top=0;left=0;bottom=0;right=0;align=left;spacingLeft=6;overflow=hidden;whiteSpace=wrap;html=1;" vertex="1" parent="djq6IaJUHDn9vAA4K8EV-5">
          <mxGeometry x="30" width="450" height="30" as="geometry">
            <mxRectangle width="450" height="30" as="alternateBounds" />
          </mxGeometry>
        </mxCell>
        <mxCell id="djq6IaJUHDn9vAA4K8EV-8" value="" style="shape=tableRow;horizontal=0;startSize=0;swimlaneHead=0;swimlaneBody=0;fillColor=none;collapsible=0;dropTarget=0;points=[[0,0.5],[1,0.5]];portConstraint=eastwest;top=0;left=0;right=0;bottom=0;" vertex="1" parent="djq6IaJUHDn9vAA4K8EV-1">
          <mxGeometry y="90" width="480" height="30" as="geometry" />
        </mxCell>
        <mxCell id="djq6IaJUHDn9vAA4K8EV-9" value="FK" style="shape=partialRectangle;connectable=0;fillColor=none;top=0;left=0;bottom=0;right=0;editable=1;overflow=hidden;whiteSpace=wrap;html=1;" vertex="1" parent="djq6IaJUHDn9vAA4K8EV-8">
          <mxGeometry width="30" height="30" as="geometry">
            <mxRectangle width="30" height="30" as="alternateBounds" />
          </mxGeometry>
        </mxCell>
        <mxCell id="djq6IaJUHDn9vAA4K8EV-10" value="listing_id INTEGER REFERENCES listings(id) NOT NULL" style="shape=partialRectangle;connectable=0;fillColor=none;top=0;left=0;bottom=0;right=0;align=left;spacingLeft=6;overflow=hidden;whiteSpace=wrap;html=1;" vertex="1" parent="djq6IaJUHDn9vAA4K8EV-8">
          <mxGeometry x="30" width="450" height="30" as="geometry">
            <mxRectangle width="450" height="30" as="alternateBounds" />
          </mxGeometry>
        </mxCell>
        <mxCell id="djq6IaJUHDn9vAA4K8EV-169" value="" style="shape=tableRow;horizontal=0;startSize=0;swimlaneHead=0;swimlaneBody=0;fillColor=none;collapsible=0;dropTarget=0;points=[[0,0.5],[1,0.5]];portConstraint=eastwest;top=0;left=0;right=0;bottom=0;" vertex="1" parent="djq6IaJUHDn9vAA4K8EV-1">
          <mxGeometry y="120" width="480" height="30" as="geometry" />
        </mxCell>
        <mxCell id="djq6IaJUHDn9vAA4K8EV-170" value="" style="shape=partialRectangle;connectable=0;fillColor=none;top=0;left=0;bottom=0;right=0;editable=1;overflow=hidden;whiteSpace=wrap;html=1;" vertex="1" parent="djq6IaJUHDn9vAA4K8EV-169">
          <mxGeometry width="30" height="30" as="geometry">
            <mxRectangle width="30" height="30" as="alternateBounds" />
          </mxGeometry>
        </mxCell>
        <mxCell id="djq6IaJUHDn9vAA4K8EV-171" value="price_cents INTEGER NOT NULL&lt;br&gt;* must not be referenced to ad_tier price" style="shape=partialRectangle;connectable=0;fillColor=none;top=0;left=0;bottom=0;right=0;align=left;spacingLeft=6;overflow=hidden;whiteSpace=wrap;html=1;" vertex="1" parent="djq6IaJUHDn9vAA4K8EV-169">
          <mxGeometry x="30" width="450" height="30" as="geometry">
            <mxRectangle width="450" height="30" as="alternateBounds" />
          </mxGeometry>
        </mxCell>
        <mxCell id="djq6IaJUHDn9vAA4K8EV-14" value="" style="edgeStyle=orthogonalEdgeStyle;fontSize=12;html=1;endArrow=ERoneToMany;rounded=0;strokeWidth=2;endSize=10;exitX=1;exitY=0.5;exitDx=0;exitDy=0;entryX=0;entryY=0.5;entryDx=0;entryDy=0;" edge="1" parent="1" source="djq6IaJUHDn9vAA4K8EV-16" target="djq6IaJUHDn9vAA4K8EV-32">
          <mxGeometry width="100" height="100" relative="1" as="geometry">
            <mxPoint x="-760" y="305" as="sourcePoint" />
            <mxPoint x="-630" y="215" as="targetPoint" />
            <Array as="points">
              <mxPoint x="-640" y="485" />
              <mxPoint x="-640" y="165" />
            </Array>
          </mxGeometry>
        </mxCell>
        <mxCell id="djq6IaJUHDn9vAA4K8EV-15" value="users" style="shape=table;startSize=30;container=1;collapsible=1;childLayout=tableLayout;fixedRows=1;rowLines=0;fontStyle=1;align=center;resizeLast=1;html=1;" vertex="1" parent="1">
          <mxGeometry x="-1160" y="440" width="480" height="210" as="geometry" />
        </mxCell>
        <mxCell id="djq6IaJUHDn9vAA4K8EV-16" value="" style="shape=tableRow;horizontal=0;startSize=0;swimlaneHead=0;swimlaneBody=0;fillColor=none;collapsible=0;dropTarget=0;points=[[0,0.5],[1,0.5]];portConstraint=eastwest;top=0;left=0;right=0;bottom=1;" vertex="1" parent="djq6IaJUHDn9vAA4K8EV-15">
          <mxGeometry y="30" width="480" height="30" as="geometry" />
        </mxCell>
        <mxCell id="djq6IaJUHDn9vAA4K8EV-17" value="PK" style="shape=partialRectangle;connectable=0;fillColor=none;top=0;left=0;bottom=0;right=0;fontStyle=1;overflow=hidden;whiteSpace=wrap;html=1;" vertex="1" parent="djq6IaJUHDn9vAA4K8EV-16">
          <mxGeometry width="30" height="30" as="geometry">
            <mxRectangle width="30" height="30" as="alternateBounds" />
          </mxGeometry>
        </mxCell>
        <mxCell id="djq6IaJUHDn9vAA4K8EV-18" value="id" style="shape=partialRectangle;connectable=0;fillColor=none;top=0;left=0;bottom=0;right=0;align=left;spacingLeft=6;fontStyle=5;overflow=hidden;whiteSpace=wrap;html=1;" vertex="1" parent="djq6IaJUHDn9vAA4K8EV-16">
          <mxGeometry x="30" width="450" height="30" as="geometry">
            <mxRectangle width="450" height="30" as="alternateBounds" />
          </mxGeometry>
        </mxCell>
        <mxCell id="djq6IaJUHDn9vAA4K8EV-19" value="" style="shape=tableRow;horizontal=0;startSize=0;swimlaneHead=0;swimlaneBody=0;fillColor=none;collapsible=0;dropTarget=0;points=[[0,0.5],[1,0.5]];portConstraint=eastwest;top=0;left=0;right=0;bottom=0;" vertex="1" parent="djq6IaJUHDn9vAA4K8EV-15">
          <mxGeometry y="60" width="480" height="30" as="geometry" />
        </mxCell>
        <mxCell id="djq6IaJUHDn9vAA4K8EV-20" value="" style="shape=partialRectangle;connectable=0;fillColor=none;top=0;left=0;bottom=0;right=0;editable=1;overflow=hidden;whiteSpace=wrap;html=1;" vertex="1" parent="djq6IaJUHDn9vAA4K8EV-19">
          <mxGeometry width="30" height="30" as="geometry">
            <mxRectangle width="30" height="30" as="alternateBounds" />
          </mxGeometry>
        </mxCell>
        <mxCell id="djq6IaJUHDn9vAA4K8EV-21" value="first_name TEXT NOT NULL" style="shape=partialRectangle;connectable=0;fillColor=none;top=0;left=0;bottom=0;right=0;align=left;spacingLeft=6;overflow=hidden;whiteSpace=wrap;html=1;" vertex="1" parent="djq6IaJUHDn9vAA4K8EV-19">
          <mxGeometry x="30" width="450" height="30" as="geometry">
            <mxRectangle width="450" height="30" as="alternateBounds" />
          </mxGeometry>
        </mxCell>
        <mxCell id="djq6IaJUHDn9vAA4K8EV-22" value="" style="shape=tableRow;horizontal=0;startSize=0;swimlaneHead=0;swimlaneBody=0;fillColor=none;collapsible=0;dropTarget=0;points=[[0,0.5],[1,0.5]];portConstraint=eastwest;top=0;left=0;right=0;bottom=0;" vertex="1" parent="djq6IaJUHDn9vAA4K8EV-15">
          <mxGeometry y="90" width="480" height="30" as="geometry" />
        </mxCell>
        <mxCell id="djq6IaJUHDn9vAA4K8EV-23" value="" style="shape=partialRectangle;connectable=0;fillColor=none;top=0;left=0;bottom=0;right=0;editable=1;overflow=hidden;whiteSpace=wrap;html=1;" vertex="1" parent="djq6IaJUHDn9vAA4K8EV-22">
          <mxGeometry width="30" height="30" as="geometry">
            <mxRectangle width="30" height="30" as="alternateBounds" />
          </mxGeometry>
        </mxCell>
        <mxCell id="djq6IaJUHDn9vAA4K8EV-24" value="last_name TEXT NOT NULL" style="shape=partialRectangle;connectable=0;fillColor=none;top=0;left=0;bottom=0;right=0;align=left;spacingLeft=6;overflow=hidden;whiteSpace=wrap;html=1;" vertex="1" parent="djq6IaJUHDn9vAA4K8EV-22">
          <mxGeometry x="30" width="450" height="30" as="geometry">
            <mxRectangle width="450" height="30" as="alternateBounds" />
          </mxGeometry>
        </mxCell>
        <mxCell id="djq6IaJUHDn9vAA4K8EV-25" value="" style="shape=tableRow;horizontal=0;startSize=0;swimlaneHead=0;swimlaneBody=0;fillColor=none;collapsible=0;dropTarget=0;points=[[0,0.5],[1,0.5]];portConstraint=eastwest;top=0;left=0;right=0;bottom=0;" vertex="1" parent="djq6IaJUHDn9vAA4K8EV-15">
          <mxGeometry y="120" width="480" height="30" as="geometry" />
        </mxCell>
        <mxCell id="djq6IaJUHDn9vAA4K8EV-26" value="" style="shape=partialRectangle;connectable=0;fillColor=none;top=0;left=0;bottom=0;right=0;editable=1;overflow=hidden;whiteSpace=wrap;html=1;" vertex="1" parent="djq6IaJUHDn9vAA4K8EV-25">
          <mxGeometry width="30" height="30" as="geometry">
            <mxRectangle width="30" height="30" as="alternateBounds" />
          </mxGeometry>
        </mxCell>
        <mxCell id="djq6IaJUHDn9vAA4K8EV-27" value="email TEXT NOT NULL" style="shape=partialRectangle;connectable=0;fillColor=none;top=0;left=0;bottom=0;right=0;align=left;spacingLeft=6;overflow=hidden;whiteSpace=wrap;html=1;" vertex="1" parent="djq6IaJUHDn9vAA4K8EV-25">
          <mxGeometry x="30" width="450" height="30" as="geometry">
            <mxRectangle width="450" height="30" as="alternateBounds" />
          </mxGeometry>
        </mxCell>
        <mxCell id="djq6IaJUHDn9vAA4K8EV-154" value="" style="shape=tableRow;horizontal=0;startSize=0;swimlaneHead=0;swimlaneBody=0;fillColor=none;collapsible=0;dropTarget=0;points=[[0,0.5],[1,0.5]];portConstraint=eastwest;top=0;left=0;right=0;bottom=0;" vertex="1" parent="djq6IaJUHDn9vAA4K8EV-15">
          <mxGeometry y="150" width="480" height="30" as="geometry" />
        </mxCell>
        <mxCell id="djq6IaJUHDn9vAA4K8EV-155" value="" style="shape=partialRectangle;connectable=0;fillColor=none;top=0;left=0;bottom=0;right=0;editable=1;overflow=hidden;whiteSpace=wrap;html=1;" vertex="1" parent="djq6IaJUHDn9vAA4K8EV-154">
          <mxGeometry width="30" height="30" as="geometry">
            <mxRectangle width="30" height="30" as="alternateBounds" />
          </mxGeometry>
        </mxCell>
        <mxCell id="djq6IaJUHDn9vAA4K8EV-156" value="password TEXT NOT NULL" style="shape=partialRectangle;connectable=0;fillColor=none;top=0;left=0;bottom=0;right=0;align=left;spacingLeft=6;overflow=hidden;whiteSpace=wrap;html=1;" vertex="1" parent="djq6IaJUHDn9vAA4K8EV-154">
          <mxGeometry x="30" width="450" height="30" as="geometry">
            <mxRectangle width="450" height="30" as="alternateBounds" />
          </mxGeometry>
        </mxCell>
        <mxCell id="djq6IaJUHDn9vAA4K8EV-178" value="" style="shape=tableRow;horizontal=0;startSize=0;swimlaneHead=0;swimlaneBody=0;fillColor=none;collapsible=0;dropTarget=0;points=[[0,0.5],[1,0.5]];portConstraint=eastwest;top=0;left=0;right=0;bottom=0;" vertex="1" parent="djq6IaJUHDn9vAA4K8EV-15">
          <mxGeometry y="180" width="480" height="30" as="geometry" />
        </mxCell>
        <mxCell id="djq6IaJUHDn9vAA4K8EV-179" value="" style="shape=partialRectangle;connectable=0;fillColor=none;top=0;left=0;bottom=0;right=0;editable=1;overflow=hidden;whiteSpace=wrap;html=1;" vertex="1" parent="djq6IaJUHDn9vAA4K8EV-178">
          <mxGeometry width="30" height="30" as="geometry">
            <mxRectangle width="30" height="30" as="alternateBounds" />
          </mxGeometry>
        </mxCell>
        <mxCell id="djq6IaJUHDn9vAA4K8EV-180" value="**STRETCH**&lt;br&gt;credit_card VARCHAR(16) DEFAULT NULL" style="shape=partialRectangle;connectable=0;fillColor=none;top=0;left=0;bottom=0;right=0;align=left;spacingLeft=6;overflow=hidden;whiteSpace=wrap;html=1;" vertex="1" parent="djq6IaJUHDn9vAA4K8EV-178">
          <mxGeometry x="30" width="450" height="30" as="geometry">
            <mxRectangle width="450" height="30" as="alternateBounds" />
          </mxGeometry>
        </mxCell>
        <mxCell id="djq6IaJUHDn9vAA4K8EV-28" value="listings" style="shape=table;startSize=30;container=1;collapsible=1;childLayout=tableLayout;fixedRows=1;rowLines=0;fontStyle=1;align=center;resizeLast=1;html=1;" vertex="1" parent="1">
          <mxGeometry x="-520" y="90" width="480" height="340" as="geometry" />
        </mxCell>
        <mxCell id="djq6IaJUHDn9vAA4K8EV-29" value="" style="shape=tableRow;horizontal=0;startSize=0;swimlaneHead=0;swimlaneBody=0;fillColor=none;collapsible=0;dropTarget=0;points=[[0,0.5],[1,0.5]];portConstraint=eastwest;top=0;left=0;right=0;bottom=1;" vertex="1" parent="djq6IaJUHDn9vAA4K8EV-28">
          <mxGeometry y="30" width="480" height="30" as="geometry" />
        </mxCell>
        <mxCell id="djq6IaJUHDn9vAA4K8EV-30" value="PK" style="shape=partialRectangle;connectable=0;fillColor=none;top=0;left=0;bottom=0;right=0;fontStyle=1;overflow=hidden;whiteSpace=wrap;html=1;" vertex="1" parent="djq6IaJUHDn9vAA4K8EV-29">
          <mxGeometry width="30" height="30" as="geometry">
            <mxRectangle width="30" height="30" as="alternateBounds" />
          </mxGeometry>
        </mxCell>
        <mxCell id="djq6IaJUHDn9vAA4K8EV-31" value="id" style="shape=partialRectangle;connectable=0;fillColor=none;top=0;left=0;bottom=0;right=0;align=left;spacingLeft=6;fontStyle=5;overflow=hidden;whiteSpace=wrap;html=1;" vertex="1" parent="djq6IaJUHDn9vAA4K8EV-29">
          <mxGeometry x="30" width="450" height="30" as="geometry">
            <mxRectangle width="450" height="30" as="alternateBounds" />
          </mxGeometry>
        </mxCell>
        <mxCell id="djq6IaJUHDn9vAA4K8EV-32" value="" style="shape=tableRow;horizontal=0;startSize=0;swimlaneHead=0;swimlaneBody=0;fillColor=none;collapsible=0;dropTarget=0;points=[[0,0.5],[1,0.5]];portConstraint=eastwest;top=0;left=0;right=0;bottom=0;" vertex="1" parent="djq6IaJUHDn9vAA4K8EV-28">
          <mxGeometry y="60" width="480" height="30" as="geometry" />
        </mxCell>
        <mxCell id="djq6IaJUHDn9vAA4K8EV-33" value="FK" style="shape=partialRectangle;connectable=0;fillColor=none;top=0;left=0;bottom=0;right=0;editable=1;overflow=hidden;whiteSpace=wrap;html=1;" vertex="1" parent="djq6IaJUHDn9vAA4K8EV-32">
          <mxGeometry width="30" height="30" as="geometry">
            <mxRectangle width="30" height="30" as="alternateBounds" />
          </mxGeometry>
        </mxCell>
        <mxCell id="djq6IaJUHDn9vAA4K8EV-34" value="owner_id INTEGER REFERENCES users(id) NOT NULL" style="shape=partialRectangle;connectable=0;fillColor=none;top=0;left=0;bottom=0;right=0;align=left;spacingLeft=6;overflow=hidden;whiteSpace=wrap;html=1;" vertex="1" parent="djq6IaJUHDn9vAA4K8EV-32">
          <mxGeometry x="30" width="450" height="30" as="geometry">
            <mxRectangle width="450" height="30" as="alternateBounds" />
          </mxGeometry>
        </mxCell>
        <mxCell id="djq6IaJUHDn9vAA4K8EV-35" value="" style="shape=tableRow;horizontal=0;startSize=0;swimlaneHead=0;swimlaneBody=0;fillColor=none;collapsible=0;dropTarget=0;points=[[0,0.5],[1,0.5]];portConstraint=eastwest;top=0;left=0;right=0;bottom=0;" vertex="1" parent="djq6IaJUHDn9vAA4K8EV-28">
          <mxGeometry y="90" width="480" height="30" as="geometry" />
        </mxCell>
        <mxCell id="djq6IaJUHDn9vAA4K8EV-36" value="" style="shape=partialRectangle;connectable=0;fillColor=none;top=0;left=0;bottom=0;right=0;editable=1;overflow=hidden;whiteSpace=wrap;html=1;" vertex="1" parent="djq6IaJUHDn9vAA4K8EV-35">
          <mxGeometry width="30" height="30" as="geometry">
            <mxRectangle width="30" height="30" as="alternateBounds" />
          </mxGeometry>
        </mxCell>
        <mxCell id="djq6IaJUHDn9vAA4K8EV-37" value="title VARCHAR (100) NOT NULL" style="shape=partialRectangle;connectable=0;fillColor=none;top=0;left=0;bottom=0;right=0;align=left;spacingLeft=6;overflow=hidden;whiteSpace=wrap;html=1;" vertex="1" parent="djq6IaJUHDn9vAA4K8EV-35">
          <mxGeometry x="30" width="450" height="30" as="geometry">
            <mxRectangle width="450" height="30" as="alternateBounds" />
          </mxGeometry>
        </mxCell>
        <mxCell id="djq6IaJUHDn9vAA4K8EV-38" value="" style="shape=tableRow;horizontal=0;startSize=0;swimlaneHead=0;swimlaneBody=0;fillColor=none;collapsible=0;dropTarget=0;points=[[0,0.5],[1,0.5]];portConstraint=eastwest;top=0;left=0;right=0;bottom=0;" vertex="1" parent="djq6IaJUHDn9vAA4K8EV-28">
          <mxGeometry y="120" width="480" height="30" as="geometry" />
        </mxCell>
        <mxCell id="djq6IaJUHDn9vAA4K8EV-39" value="" style="shape=partialRectangle;connectable=0;fillColor=none;top=0;left=0;bottom=0;right=0;editable=1;overflow=hidden;whiteSpace=wrap;html=1;" vertex="1" parent="djq6IaJUHDn9vAA4K8EV-38">
          <mxGeometry width="30" height="30" as="geometry">
            <mxRectangle width="30" height="30" as="alternateBounds" />
          </mxGeometry>
        </mxCell>
        <mxCell id="djq6IaJUHDn9vAA4K8EV-40" value="description TEXT NOT NULL" style="shape=partialRectangle;connectable=0;fillColor=none;top=0;left=0;bottom=0;right=0;align=left;spacingLeft=6;overflow=hidden;whiteSpace=wrap;html=1;" vertex="1" parent="djq6IaJUHDn9vAA4K8EV-38">
          <mxGeometry x="30" width="450" height="30" as="geometry">
            <mxRectangle width="450" height="30" as="alternateBounds" />
          </mxGeometry>
        </mxCell>
        <mxCell id="djq6IaJUHDn9vAA4K8EV-71" value="" style="shape=tableRow;horizontal=0;startSize=0;swimlaneHead=0;swimlaneBody=0;fillColor=none;collapsible=0;dropTarget=0;points=[[0,0.5],[1,0.5]];portConstraint=eastwest;top=0;left=0;right=0;bottom=0;" vertex="1" parent="djq6IaJUHDn9vAA4K8EV-28">
          <mxGeometry y="150" width="480" height="30" as="geometry" />
        </mxCell>
        <mxCell id="djq6IaJUHDn9vAA4K8EV-72" value="" style="shape=partialRectangle;connectable=0;fillColor=none;top=0;left=0;bottom=0;right=0;editable=1;overflow=hidden;whiteSpace=wrap;html=1;" vertex="1" parent="djq6IaJUHDn9vAA4K8EV-71">
          <mxGeometry width="30" height="30" as="geometry">
            <mxRectangle width="30" height="30" as="alternateBounds" />
          </mxGeometry>
        </mxCell>
        <mxCell id="djq6IaJUHDn9vAA4K8EV-73" value="price_cents INTEGER NOT NULL" style="shape=partialRectangle;connectable=0;fillColor=none;top=0;left=0;bottom=0;right=0;align=left;spacingLeft=6;overflow=hidden;whiteSpace=wrap;html=1;" vertex="1" parent="djq6IaJUHDn9vAA4K8EV-71">
          <mxGeometry x="30" width="450" height="30" as="geometry">
            <mxRectangle width="450" height="30" as="alternateBounds" />
          </mxGeometry>
        </mxCell>
        <mxCell id="djq6IaJUHDn9vAA4K8EV-109" value="" style="shape=tableRow;horizontal=0;startSize=0;swimlaneHead=0;swimlaneBody=0;fillColor=none;collapsible=0;dropTarget=0;points=[[0,0.5],[1,0.5]];portConstraint=eastwest;top=0;left=0;right=0;bottom=0;" vertex="1" parent="djq6IaJUHDn9vAA4K8EV-28">
          <mxGeometry y="180" width="480" height="40" as="geometry" />
        </mxCell>
        <mxCell id="djq6IaJUHDn9vAA4K8EV-110" value="" style="shape=partialRectangle;connectable=0;fillColor=none;top=0;left=0;bottom=0;right=0;editable=1;overflow=hidden;whiteSpace=wrap;html=1;" vertex="1" parent="djq6IaJUHDn9vAA4K8EV-109">
          <mxGeometry width="30" height="40" as="geometry">
            <mxRectangle width="30" height="40" as="alternateBounds" />
          </mxGeometry>
        </mxCell>
        <mxCell id="djq6IaJUHDn9vAA4K8EV-111" value="status BOOLEAN DEFAULT NULL&lt;br&gt;(null is when ad is in staging area = not posted, true is active, false is removed)" style="shape=partialRectangle;connectable=0;fillColor=none;top=0;left=0;bottom=0;right=0;align=left;spacingLeft=6;overflow=hidden;whiteSpace=wrap;html=1;" vertex="1" parent="djq6IaJUHDn9vAA4K8EV-109">
          <mxGeometry x="30" width="450" height="40" as="geometry">
            <mxRectangle width="450" height="40" as="alternateBounds" />
          </mxGeometry>
        </mxCell>
        <mxCell id="djq6IaJUHDn9vAA4K8EV-160" value="" style="shape=tableRow;horizontal=0;startSize=0;swimlaneHead=0;swimlaneBody=0;fillColor=none;collapsible=0;dropTarget=0;points=[[0,0.5],[1,0.5]];portConstraint=eastwest;top=0;left=0;right=0;bottom=0;" vertex="1" parent="djq6IaJUHDn9vAA4K8EV-28">
          <mxGeometry y="220" width="480" height="60" as="geometry" />
        </mxCell>
        <mxCell id="djq6IaJUHDn9vAA4K8EV-161" value="" style="shape=partialRectangle;connectable=0;fillColor=none;top=0;left=0;bottom=0;right=0;editable=1;overflow=hidden;whiteSpace=wrap;html=1;" vertex="1" parent="djq6IaJUHDn9vAA4K8EV-160">
          <mxGeometry width="30" height="60" as="geometry">
            <mxRectangle width="30" height="60" as="alternateBounds" />
          </mxGeometry>
        </mxCell>
        <mxCell id="djq6IaJUHDn9vAA4K8EV-162" value="**STRETCH**&lt;br&gt;priority_level&lt;br&gt;(for applying ad_tier status to search results/ordering)" style="shape=partialRectangle;connectable=0;fillColor=none;top=0;left=0;bottom=0;right=0;align=left;spacingLeft=6;overflow=hidden;whiteSpace=wrap;html=1;" vertex="1" parent="djq6IaJUHDn9vAA4K8EV-160">
          <mxGeometry x="30" width="450" height="60" as="geometry">
            <mxRectangle width="450" height="60" as="alternateBounds" />
          </mxGeometry>
        </mxCell>
        <mxCell id="djq6IaJUHDn9vAA4K8EV-188" value="" style="shape=tableRow;horizontal=0;startSize=0;swimlaneHead=0;swimlaneBody=0;fillColor=none;collapsible=0;dropTarget=0;points=[[0,0.5],[1,0.5]];portConstraint=eastwest;top=0;left=0;right=0;bottom=0;" vertex="1" parent="djq6IaJUHDn9vAA4K8EV-28">
          <mxGeometry y="280" width="480" height="60" as="geometry" />
        </mxCell>
        <mxCell id="djq6IaJUHDn9vAA4K8EV-189" value="" style="shape=partialRectangle;connectable=0;fillColor=none;top=0;left=0;bottom=0;right=0;editable=1;overflow=hidden;whiteSpace=wrap;html=1;" vertex="1" parent="djq6IaJUHDn9vAA4K8EV-188">
          <mxGeometry width="30" height="60" as="geometry">
            <mxRectangle width="30" height="60" as="alternateBounds" />
          </mxGeometry>
        </mxCell>
        <mxCell id="djq6IaJUHDn9vAA4K8EV-190" value="**STRETCH**&lt;br&gt;expiry_date&lt;br&gt;(this will tie into orders/ad_products features)" style="shape=partialRectangle;connectable=0;fillColor=none;top=0;left=0;bottom=0;right=0;align=left;spacingLeft=6;overflow=hidden;whiteSpace=wrap;html=1;" vertex="1" parent="djq6IaJUHDn9vAA4K8EV-188">
          <mxGeometry x="30" width="450" height="60" as="geometry">
            <mxRectangle width="450" height="60" as="alternateBounds" />
          </mxGeometry>
        </mxCell>
        <mxCell id="djq6IaJUHDn9vAA4K8EV-41" value="messages" style="shape=table;startSize=30;container=1;collapsible=1;childLayout=tableLayout;fixedRows=1;rowLines=0;fontStyle=1;align=center;resizeLast=1;html=1;" vertex="1" parent="1">
          <mxGeometry x="760" y="500" width="480" height="180" as="geometry" />
        </mxCell>
        <mxCell id="djq6IaJUHDn9vAA4K8EV-42" value="" style="shape=tableRow;horizontal=0;startSize=0;swimlaneHead=0;swimlaneBody=0;fillColor=none;collapsible=0;dropTarget=0;points=[[0,0.5],[1,0.5]];portConstraint=eastwest;top=0;left=0;right=0;bottom=1;" vertex="1" parent="djq6IaJUHDn9vAA4K8EV-41">
          <mxGeometry y="30" width="480" height="30" as="geometry" />
        </mxCell>
        <mxCell id="djq6IaJUHDn9vAA4K8EV-43" value="PK" style="shape=partialRectangle;connectable=0;fillColor=none;top=0;left=0;bottom=0;right=0;fontStyle=1;overflow=hidden;whiteSpace=wrap;html=1;" vertex="1" parent="djq6IaJUHDn9vAA4K8EV-42">
          <mxGeometry width="30" height="30" as="geometry">
            <mxRectangle width="30" height="30" as="alternateBounds" />
          </mxGeometry>
        </mxCell>
        <mxCell id="djq6IaJUHDn9vAA4K8EV-44" value="id" style="shape=partialRectangle;connectable=0;fillColor=none;top=0;left=0;bottom=0;right=0;align=left;spacingLeft=6;fontStyle=5;overflow=hidden;whiteSpace=wrap;html=1;" vertex="1" parent="djq6IaJUHDn9vAA4K8EV-42">
          <mxGeometry x="30" width="450" height="30" as="geometry">
            <mxRectangle width="450" height="30" as="alternateBounds" />
          </mxGeometry>
        </mxCell>
        <mxCell id="djq6IaJUHDn9vAA4K8EV-45" value="" style="shape=tableRow;horizontal=0;startSize=0;swimlaneHead=0;swimlaneBody=0;fillColor=none;collapsible=0;dropTarget=0;points=[[0,0.5],[1,0.5]];portConstraint=eastwest;top=0;left=0;right=0;bottom=0;" vertex="1" parent="djq6IaJUHDn9vAA4K8EV-41">
          <mxGeometry y="60" width="480" height="30" as="geometry" />
        </mxCell>
        <mxCell id="djq6IaJUHDn9vAA4K8EV-46" value="FK" style="shape=partialRectangle;connectable=0;fillColor=none;top=0;left=0;bottom=0;right=0;editable=1;overflow=hidden;whiteSpace=wrap;html=1;" vertex="1" parent="djq6IaJUHDn9vAA4K8EV-45">
          <mxGeometry width="30" height="30" as="geometry">
            <mxRectangle width="30" height="30" as="alternateBounds" />
          </mxGeometry>
        </mxCell>
        <mxCell id="djq6IaJUHDn9vAA4K8EV-47" value="conversation_id INTEGER REFERENCES conversations(id) NOT NULL" style="shape=partialRectangle;connectable=0;fillColor=none;top=0;left=0;bottom=0;right=0;align=left;spacingLeft=6;overflow=hidden;whiteSpace=wrap;html=1;" vertex="1" parent="djq6IaJUHDn9vAA4K8EV-45">
          <mxGeometry x="30" width="450" height="30" as="geometry">
            <mxRectangle width="450" height="30" as="alternateBounds" />
          </mxGeometry>
        </mxCell>
        <mxCell id="djq6IaJUHDn9vAA4K8EV-51" value="" style="shape=tableRow;horizontal=0;startSize=0;swimlaneHead=0;swimlaneBody=0;fillColor=none;collapsible=0;dropTarget=0;points=[[0,0.5],[1,0.5]];portConstraint=eastwest;top=0;left=0;right=0;bottom=0;" vertex="1" parent="djq6IaJUHDn9vAA4K8EV-41">
          <mxGeometry y="90" width="480" height="30" as="geometry" />
        </mxCell>
        <mxCell id="djq6IaJUHDn9vAA4K8EV-52" value="FK" style="shape=partialRectangle;connectable=0;fillColor=none;top=0;left=0;bottom=0;right=0;editable=1;overflow=hidden;whiteSpace=wrap;html=1;" vertex="1" parent="djq6IaJUHDn9vAA4K8EV-51">
          <mxGeometry width="30" height="30" as="geometry">
            <mxRectangle width="30" height="30" as="alternateBounds" />
          </mxGeometry>
        </mxCell>
        <mxCell id="djq6IaJUHDn9vAA4K8EV-53" value="sender_id INTEGER REFERENCES users(id) NOT NULL" style="shape=partialRectangle;connectable=0;fillColor=none;top=0;left=0;bottom=0;right=0;align=left;spacingLeft=6;overflow=hidden;whiteSpace=wrap;html=1;" vertex="1" parent="djq6IaJUHDn9vAA4K8EV-51">
          <mxGeometry x="30" width="450" height="30" as="geometry">
            <mxRectangle width="450" height="30" as="alternateBounds" />
          </mxGeometry>
        </mxCell>
        <mxCell id="djq6IaJUHDn9vAA4K8EV-163" value="" style="shape=tableRow;horizontal=0;startSize=0;swimlaneHead=0;swimlaneBody=0;fillColor=none;collapsible=0;dropTarget=0;points=[[0,0.5],[1,0.5]];portConstraint=eastwest;top=0;left=0;right=0;bottom=0;" vertex="1" parent="djq6IaJUHDn9vAA4K8EV-41">
          <mxGeometry y="120" width="480" height="30" as="geometry" />
        </mxCell>
        <mxCell id="djq6IaJUHDn9vAA4K8EV-164" value="" style="shape=partialRectangle;connectable=0;fillColor=none;top=0;left=0;bottom=0;right=0;editable=1;overflow=hidden;whiteSpace=wrap;html=1;" vertex="1" parent="djq6IaJUHDn9vAA4K8EV-163">
          <mxGeometry width="30" height="30" as="geometry">
            <mxRectangle width="30" height="30" as="alternateBounds" />
          </mxGeometry>
        </mxCell>
        <mxCell id="djq6IaJUHDn9vAA4K8EV-165" value="message_contents TEXT NOT NULL" style="shape=partialRectangle;connectable=0;fillColor=none;top=0;left=0;bottom=0;right=0;align=left;spacingLeft=6;overflow=hidden;whiteSpace=wrap;html=1;" vertex="1" parent="djq6IaJUHDn9vAA4K8EV-163">
          <mxGeometry x="30" width="450" height="30" as="geometry">
            <mxRectangle width="450" height="30" as="alternateBounds" />
          </mxGeometry>
        </mxCell>
        <mxCell id="djq6IaJUHDn9vAA4K8EV-166" value="" style="shape=tableRow;horizontal=0;startSize=0;swimlaneHead=0;swimlaneBody=0;fillColor=none;collapsible=0;dropTarget=0;points=[[0,0.5],[1,0.5]];portConstraint=eastwest;top=0;left=0;right=0;bottom=0;" vertex="1" parent="djq6IaJUHDn9vAA4K8EV-41">
          <mxGeometry y="150" width="480" height="30" as="geometry" />
        </mxCell>
        <mxCell id="djq6IaJUHDn9vAA4K8EV-167" value="" style="shape=partialRectangle;connectable=0;fillColor=none;top=0;left=0;bottom=0;right=0;editable=1;overflow=hidden;whiteSpace=wrap;html=1;" vertex="1" parent="djq6IaJUHDn9vAA4K8EV-166">
          <mxGeometry width="30" height="30" as="geometry">
            <mxRectangle width="30" height="30" as="alternateBounds" />
          </mxGeometry>
        </mxCell>
        <mxCell id="djq6IaJUHDn9vAA4K8EV-168" value="time_sent TIMESTAMP DEFAULT CURRENT_TIMESTAMP" style="shape=partialRectangle;connectable=0;fillColor=none;top=0;left=0;bottom=0;right=0;align=left;spacingLeft=6;overflow=hidden;whiteSpace=wrap;html=1;" vertex="1" parent="djq6IaJUHDn9vAA4K8EV-166">
          <mxGeometry x="30" width="450" height="30" as="geometry">
            <mxRectangle width="450" height="30" as="alternateBounds" />
          </mxGeometry>
        </mxCell>
        <mxCell id="djq6IaJUHDn9vAA4K8EV-54" value="&lt;h1 style=&quot;text-align: center;&quot;&gt;&lt;u&gt;User Stories&lt;/u&gt;&lt;/h1&gt;&lt;p&gt;&lt;/p&gt;&lt;ul&gt;&lt;li&gt;anyone can browse LISTINGS&lt;/li&gt;&lt;li&gt;anyone can search for filtered results (price min/max, category, etc.)&amp;nbsp;&lt;/li&gt;&lt;li&gt;USERS can create, edit, and delete their account (USERS entry)&lt;/li&gt;&lt;li&gt;USERS can create, edit, and delete their LISTINGS&lt;/li&gt;&lt;li&gt;USERS can send/receive and browse MESSAGES by replying to a specific LISTING or message in their inbox (MESSAGES entries)&lt;/li&gt;&lt;li&gt;USERS can review a LISTING before it is posted (ie. listings have staging area)&lt;/li&gt;&lt;/ul&gt;&lt;div&gt;&lt;br&gt;&lt;/div&gt;&lt;ul&gt;&lt;li&gt;**STRETCH** Users can post multiple ads by adding ads from the staging area to a cart (The cart is an incomplete ORDER, which is submitted with user payment)&lt;/li&gt;&lt;li&gt;**STRETCH** Users can select which AD PRODUCT (pricing structure) to apply to their ad, which assigns a price to ORDER ITEMS + priority level to the LISTING&amp;nbsp;&lt;/li&gt;&lt;li&gt;**STRETCH** Users are sent receipts for their posted ads (ORDERS) via their email&lt;/li&gt;&lt;li&gt;**STRETCH** Super-users can create, edit, and delete AD PRODUCTS (pricing structures)&lt;/li&gt;&lt;/ul&gt;" style="text;html=1;strokeColor=none;fillColor=none;spacing=5;spacingTop=-20;whiteSpace=wrap;overflow=hidden;rounded=0;" vertex="1" parent="1">
          <mxGeometry x="-1700" y="50" width="500" height="985" as="geometry" />
        </mxCell>
        <mxCell id="djq6IaJUHDn9vAA4K8EV-55" value="conversations" style="shape=table;startSize=30;container=1;collapsible=1;childLayout=tableLayout;fixedRows=1;rowLines=0;fontStyle=1;align=center;resizeLast=1;html=1;" vertex="1" parent="1">
          <mxGeometry x="120" y="480" width="480" height="90" as="geometry" />
        </mxCell>
        <mxCell id="djq6IaJUHDn9vAA4K8EV-56" value="" style="shape=tableRow;horizontal=0;startSize=0;swimlaneHead=0;swimlaneBody=0;fillColor=none;collapsible=0;dropTarget=0;points=[[0,0.5],[1,0.5]];portConstraint=eastwest;top=0;left=0;right=0;bottom=1;" vertex="1" parent="djq6IaJUHDn9vAA4K8EV-55">
          <mxGeometry y="30" width="480" height="30" as="geometry" />
        </mxCell>
        <mxCell id="djq6IaJUHDn9vAA4K8EV-57" value="PK" style="shape=partialRectangle;connectable=0;fillColor=none;top=0;left=0;bottom=0;right=0;fontStyle=1;overflow=hidden;whiteSpace=wrap;html=1;" vertex="1" parent="djq6IaJUHDn9vAA4K8EV-56">
          <mxGeometry width="30" height="30" as="geometry">
            <mxRectangle width="30" height="30" as="alternateBounds" />
          </mxGeometry>
        </mxCell>
        <mxCell id="djq6IaJUHDn9vAA4K8EV-58" value="id" style="shape=partialRectangle;connectable=0;fillColor=none;top=0;left=0;bottom=0;right=0;align=left;spacingLeft=6;fontStyle=5;overflow=hidden;whiteSpace=wrap;html=1;" vertex="1" parent="djq6IaJUHDn9vAA4K8EV-56">
          <mxGeometry x="30" width="450" height="30" as="geometry">
            <mxRectangle width="450" height="30" as="alternateBounds" />
          </mxGeometry>
        </mxCell>
        <mxCell id="djq6IaJUHDn9vAA4K8EV-59" value="" style="shape=tableRow;horizontal=0;startSize=0;swimlaneHead=0;swimlaneBody=0;fillColor=none;collapsible=0;dropTarget=0;points=[[0,0.5],[1,0.5]];portConstraint=eastwest;top=0;left=0;right=0;bottom=0;" vertex="1" parent="djq6IaJUHDn9vAA4K8EV-55">
          <mxGeometry y="60" width="480" height="30" as="geometry" />
        </mxCell>
        <mxCell id="djq6IaJUHDn9vAA4K8EV-60" value="FK" style="shape=partialRectangle;connectable=0;fillColor=none;top=0;left=0;bottom=0;right=0;editable=1;overflow=hidden;whiteSpace=wrap;html=1;" vertex="1" parent="djq6IaJUHDn9vAA4K8EV-59">
          <mxGeometry width="30" height="30" as="geometry">
            <mxRectangle width="30" height="30" as="alternateBounds" />
          </mxGeometry>
        </mxCell>
        <mxCell id="djq6IaJUHDn9vAA4K8EV-61" value="listing_id INTEGER REFERENCES listings(id) NOT NULL" style="shape=partialRectangle;connectable=0;fillColor=none;top=0;left=0;bottom=0;right=0;align=left;spacingLeft=6;overflow=hidden;whiteSpace=wrap;html=1;" vertex="1" parent="djq6IaJUHDn9vAA4K8EV-59">
          <mxGeometry x="30" width="450" height="30" as="geometry">
            <mxRectangle width="450" height="30" as="alternateBounds" />
          </mxGeometry>
        </mxCell>
        <mxCell id="djq6IaJUHDn9vAA4K8EV-86" value="listing_images" style="shape=table;startSize=30;container=1;collapsible=1;childLayout=tableLayout;fixedRows=1;rowLines=0;fontStyle=1;align=center;resizeLast=1;html=1;" vertex="1" parent="1">
          <mxGeometry x="120" y="90" width="480" height="120" as="geometry" />
        </mxCell>
        <mxCell id="djq6IaJUHDn9vAA4K8EV-87" value="" style="shape=tableRow;horizontal=0;startSize=0;swimlaneHead=0;swimlaneBody=0;fillColor=none;collapsible=0;dropTarget=0;points=[[0,0.5],[1,0.5]];portConstraint=eastwest;top=0;left=0;right=0;bottom=1;" vertex="1" parent="djq6IaJUHDn9vAA4K8EV-86">
          <mxGeometry y="30" width="480" height="30" as="geometry" />
        </mxCell>
        <mxCell id="djq6IaJUHDn9vAA4K8EV-88" value="PK" style="shape=partialRectangle;connectable=0;fillColor=none;top=0;left=0;bottom=0;right=0;fontStyle=1;overflow=hidden;whiteSpace=wrap;html=1;" vertex="1" parent="djq6IaJUHDn9vAA4K8EV-87">
          <mxGeometry width="30" height="30" as="geometry">
            <mxRectangle width="30" height="30" as="alternateBounds" />
          </mxGeometry>
        </mxCell>
        <mxCell id="djq6IaJUHDn9vAA4K8EV-89" value="id" style="shape=partialRectangle;connectable=0;fillColor=none;top=0;left=0;bottom=0;right=0;align=left;spacingLeft=6;fontStyle=5;overflow=hidden;whiteSpace=wrap;html=1;" vertex="1" parent="djq6IaJUHDn9vAA4K8EV-87">
          <mxGeometry x="30" width="450" height="30" as="geometry">
            <mxRectangle width="450" height="30" as="alternateBounds" />
          </mxGeometry>
        </mxCell>
        <mxCell id="djq6IaJUHDn9vAA4K8EV-90" value="" style="shape=tableRow;horizontal=0;startSize=0;swimlaneHead=0;swimlaneBody=0;fillColor=none;collapsible=0;dropTarget=0;points=[[0,0.5],[1,0.5]];portConstraint=eastwest;top=0;left=0;right=0;bottom=0;" vertex="1" parent="djq6IaJUHDn9vAA4K8EV-86">
          <mxGeometry y="60" width="480" height="30" as="geometry" />
        </mxCell>
        <mxCell id="djq6IaJUHDn9vAA4K8EV-91" value="FK" style="shape=partialRectangle;connectable=0;fillColor=none;top=0;left=0;bottom=0;right=0;editable=1;overflow=hidden;whiteSpace=wrap;html=1;" vertex="1" parent="djq6IaJUHDn9vAA4K8EV-90">
          <mxGeometry width="30" height="30" as="geometry">
            <mxRectangle width="30" height="30" as="alternateBounds" />
          </mxGeometry>
        </mxCell>
        <mxCell id="djq6IaJUHDn9vAA4K8EV-92" value="listing_id INTEGER REFERENCES listings(id) NOT NULL" style="shape=partialRectangle;connectable=0;fillColor=none;top=0;left=0;bottom=0;right=0;align=left;spacingLeft=6;overflow=hidden;whiteSpace=wrap;html=1;" vertex="1" parent="djq6IaJUHDn9vAA4K8EV-90">
          <mxGeometry x="30" width="450" height="30" as="geometry">
            <mxRectangle width="450" height="30" as="alternateBounds" />
          </mxGeometry>
        </mxCell>
        <mxCell id="djq6IaJUHDn9vAA4K8EV-93" value="" style="shape=tableRow;horizontal=0;startSize=0;swimlaneHead=0;swimlaneBody=0;fillColor=none;collapsible=0;dropTarget=0;points=[[0,0.5],[1,0.5]];portConstraint=eastwest;top=0;left=0;right=0;bottom=0;" vertex="1" parent="djq6IaJUHDn9vAA4K8EV-86">
          <mxGeometry y="90" width="480" height="30" as="geometry" />
        </mxCell>
        <mxCell id="djq6IaJUHDn9vAA4K8EV-94" value="" style="shape=partialRectangle;connectable=0;fillColor=none;top=0;left=0;bottom=0;right=0;editable=1;overflow=hidden;whiteSpace=wrap;html=1;" vertex="1" parent="djq6IaJUHDn9vAA4K8EV-93">
          <mxGeometry width="30" height="30" as="geometry">
            <mxRectangle width="30" height="30" as="alternateBounds" />
          </mxGeometry>
        </mxCell>
        <mxCell id="djq6IaJUHDn9vAA4K8EV-95" value="image_path TEXT NOT NULL" style="shape=partialRectangle;connectable=0;fillColor=none;top=0;left=0;bottom=0;right=0;align=left;spacingLeft=6;overflow=hidden;whiteSpace=wrap;html=1;" vertex="1" parent="djq6IaJUHDn9vAA4K8EV-93">
          <mxGeometry x="30" width="450" height="30" as="geometry">
            <mxRectangle width="450" height="30" as="alternateBounds" />
          </mxGeometry>
        </mxCell>
        <mxCell id="djq6IaJUHDn9vAA4K8EV-100" value="Note: I believe separating images into it&#39;s own table grants us the ability have any number of images associated with the listing.&amp;nbsp;" style="text;html=1;strokeColor=none;fillColor=none;align=center;verticalAlign=middle;whiteSpace=wrap;rounded=0;" vertex="1" parent="1">
          <mxGeometry x="120" y="40" width="480" height="40" as="geometry" />
        </mxCell>
        <mxCell id="djq6IaJUHDn9vAA4K8EV-108" value="Note: Alternatively, we could add x number of column headers here to allow for x number of optional image uplads. (we would use image urls/paths, of course)" style="text;html=1;strokeColor=none;fillColor=none;align=center;verticalAlign=middle;whiteSpace=wrap;rounded=0;" vertex="1" parent="1">
          <mxGeometry x="-520" y="40" width="480" height="40" as="geometry" />
        </mxCell>
        <mxCell id="djq6IaJUHDn9vAA4K8EV-112" value="orders (stretch)" style="shape=table;startSize=30;container=1;collapsible=1;childLayout=tableLayout;fixedRows=1;rowLines=0;fontStyle=1;align=center;resizeLast=1;html=1;" vertex="1" parent="1">
          <mxGeometry x="-520" y="920" width="480" height="170" as="geometry" />
        </mxCell>
        <mxCell id="djq6IaJUHDn9vAA4K8EV-113" value="" style="shape=tableRow;horizontal=0;startSize=0;swimlaneHead=0;swimlaneBody=0;fillColor=none;collapsible=0;dropTarget=0;points=[[0,0.5],[1,0.5]];portConstraint=eastwest;top=0;left=0;right=0;bottom=1;" vertex="1" parent="djq6IaJUHDn9vAA4K8EV-112">
          <mxGeometry y="30" width="480" height="30" as="geometry" />
        </mxCell>
        <mxCell id="djq6IaJUHDn9vAA4K8EV-114" value="PK" style="shape=partialRectangle;connectable=0;fillColor=none;top=0;left=0;bottom=0;right=0;fontStyle=1;overflow=hidden;whiteSpace=wrap;html=1;" vertex="1" parent="djq6IaJUHDn9vAA4K8EV-113">
          <mxGeometry width="30" height="30" as="geometry">
            <mxRectangle width="30" height="30" as="alternateBounds" />
          </mxGeometry>
        </mxCell>
        <mxCell id="djq6IaJUHDn9vAA4K8EV-115" value="id" style="shape=partialRectangle;connectable=0;fillColor=none;top=0;left=0;bottom=0;right=0;align=left;spacingLeft=6;fontStyle=5;overflow=hidden;whiteSpace=wrap;html=1;" vertex="1" parent="djq6IaJUHDn9vAA4K8EV-113">
          <mxGeometry x="30" width="450" height="30" as="geometry">
            <mxRectangle width="450" height="30" as="alternateBounds" />
          </mxGeometry>
        </mxCell>
        <mxCell id="djq6IaJUHDn9vAA4K8EV-116" value="" style="shape=tableRow;horizontal=0;startSize=0;swimlaneHead=0;swimlaneBody=0;fillColor=none;collapsible=0;dropTarget=0;points=[[0,0.5],[1,0.5]];portConstraint=eastwest;top=0;left=0;right=0;bottom=0;" vertex="1" parent="djq6IaJUHDn9vAA4K8EV-112">
          <mxGeometry y="60" width="480" height="30" as="geometry" />
        </mxCell>
        <mxCell id="djq6IaJUHDn9vAA4K8EV-117" value="FK" style="shape=partialRectangle;connectable=0;fillColor=none;top=0;left=0;bottom=0;right=0;editable=1;overflow=hidden;whiteSpace=wrap;html=1;" vertex="1" parent="djq6IaJUHDn9vAA4K8EV-116">
          <mxGeometry width="30" height="30" as="geometry">
            <mxRectangle width="30" height="30" as="alternateBounds" />
          </mxGeometry>
        </mxCell>
        <mxCell id="djq6IaJUHDn9vAA4K8EV-118" value="user_id INTEGER REFERENCES users(id) NOT NULL" style="shape=partialRectangle;connectable=0;fillColor=none;top=0;left=0;bottom=0;right=0;align=left;spacingLeft=6;overflow=hidden;whiteSpace=wrap;html=1;" vertex="1" parent="djq6IaJUHDn9vAA4K8EV-116">
          <mxGeometry x="30" width="450" height="30" as="geometry">
            <mxRectangle width="450" height="30" as="alternateBounds" />
          </mxGeometry>
        </mxCell>
        <mxCell id="djq6IaJUHDn9vAA4K8EV-119" value="" style="shape=tableRow;horizontal=0;startSize=0;swimlaneHead=0;swimlaneBody=0;fillColor=none;collapsible=0;dropTarget=0;points=[[0,0.5],[1,0.5]];portConstraint=eastwest;top=0;left=0;right=0;bottom=0;" vertex="1" parent="djq6IaJUHDn9vAA4K8EV-112">
          <mxGeometry y="90" width="480" height="50" as="geometry" />
        </mxCell>
        <mxCell id="djq6IaJUHDn9vAA4K8EV-120" value="" style="shape=partialRectangle;connectable=0;fillColor=none;top=0;left=0;bottom=0;right=0;editable=1;overflow=hidden;whiteSpace=wrap;html=1;" vertex="1" parent="djq6IaJUHDn9vAA4K8EV-119">
          <mxGeometry width="30" height="50" as="geometry">
            <mxRectangle width="30" height="50" as="alternateBounds" />
          </mxGeometry>
        </mxCell>
        <mxCell id="djq6IaJUHDn9vAA4K8EV-121" value="total_cost INTEGER NOT NULL&lt;br&gt;(denormalized - do we want this?)" style="shape=partialRectangle;connectable=0;fillColor=none;top=0;left=0;bottom=0;right=0;align=left;spacingLeft=6;overflow=hidden;whiteSpace=wrap;html=1;" vertex="1" parent="djq6IaJUHDn9vAA4K8EV-119">
          <mxGeometry x="30" width="450" height="50" as="geometry">
            <mxRectangle width="450" height="50" as="alternateBounds" />
          </mxGeometry>
        </mxCell>
        <mxCell id="djq6IaJUHDn9vAA4K8EV-122" value="" style="shape=tableRow;horizontal=0;startSize=0;swimlaneHead=0;swimlaneBody=0;fillColor=none;collapsible=0;dropTarget=0;points=[[0,0.5],[1,0.5]];portConstraint=eastwest;top=0;left=0;right=0;bottom=0;" vertex="1" parent="djq6IaJUHDn9vAA4K8EV-112">
          <mxGeometry y="140" width="480" height="30" as="geometry" />
        </mxCell>
        <mxCell id="djq6IaJUHDn9vAA4K8EV-123" value="" style="shape=partialRectangle;connectable=0;fillColor=none;top=0;left=0;bottom=0;right=0;editable=1;overflow=hidden;whiteSpace=wrap;html=1;" vertex="1" parent="djq6IaJUHDn9vAA4K8EV-122">
          <mxGeometry width="30" height="30" as="geometry">
            <mxRectangle width="30" height="30" as="alternateBounds" />
          </mxGeometry>
        </mxCell>
        <mxCell id="djq6IaJUHDn9vAA4K8EV-124" value="time_of_purchase TIMESTAMP DEFAULT CURRENT_TIMESTAMP" style="shape=partialRectangle;connectable=0;fillColor=none;top=0;left=0;bottom=0;right=0;align=left;spacingLeft=6;overflow=hidden;whiteSpace=wrap;html=1;" vertex="1" parent="djq6IaJUHDn9vAA4K8EV-122">
          <mxGeometry x="30" width="450" height="30" as="geometry">
            <mxRectangle width="450" height="30" as="alternateBounds" />
          </mxGeometry>
        </mxCell>
        <mxCell id="djq6IaJUHDn9vAA4K8EV-125" value="**STRETCH** ad_products&amp;nbsp;&lt;br&gt;(for determining current price for cart)" style="shape=table;startSize=30;container=1;collapsible=1;childLayout=tableLayout;fixedRows=1;rowLines=0;fontStyle=1;align=center;resizeLast=1;html=1;" vertex="1" parent="1">
          <mxGeometry x="-1160" y="920" width="480" height="150" as="geometry" />
        </mxCell>
        <mxCell id="djq6IaJUHDn9vAA4K8EV-126" value="" style="shape=tableRow;horizontal=0;startSize=0;swimlaneHead=0;swimlaneBody=0;fillColor=none;collapsible=0;dropTarget=0;points=[[0,0.5],[1,0.5]];portConstraint=eastwest;top=0;left=0;right=0;bottom=1;" vertex="1" parent="djq6IaJUHDn9vAA4K8EV-125">
          <mxGeometry y="30" width="480" height="30" as="geometry" />
        </mxCell>
        <mxCell id="djq6IaJUHDn9vAA4K8EV-127" value="PK" style="shape=partialRectangle;connectable=0;fillColor=none;top=0;left=0;bottom=0;right=0;fontStyle=1;overflow=hidden;whiteSpace=wrap;html=1;" vertex="1" parent="djq6IaJUHDn9vAA4K8EV-126">
          <mxGeometry width="30" height="30" as="geometry">
            <mxRectangle width="30" height="30" as="alternateBounds" />
          </mxGeometry>
        </mxCell>
        <mxCell id="djq6IaJUHDn9vAA4K8EV-128" value="id" style="shape=partialRectangle;connectable=0;fillColor=none;top=0;left=0;bottom=0;right=0;align=left;spacingLeft=6;fontStyle=5;overflow=hidden;whiteSpace=wrap;html=1;" vertex="1" parent="djq6IaJUHDn9vAA4K8EV-126">
          <mxGeometry x="30" width="450" height="30" as="geometry">
            <mxRectangle width="450" height="30" as="alternateBounds" />
          </mxGeometry>
        </mxCell>
        <mxCell id="djq6IaJUHDn9vAA4K8EV-129" value="" style="shape=tableRow;horizontal=0;startSize=0;swimlaneHead=0;swimlaneBody=0;fillColor=none;collapsible=0;dropTarget=0;points=[[0,0.5],[1,0.5]];portConstraint=eastwest;top=0;left=0;right=0;bottom=0;" vertex="1" parent="djq6IaJUHDn9vAA4K8EV-125">
          <mxGeometry y="60" width="480" height="30" as="geometry" />
        </mxCell>
        <mxCell id="djq6IaJUHDn9vAA4K8EV-130" value="" style="shape=partialRectangle;connectable=0;fillColor=none;top=0;left=0;bottom=0;right=0;editable=1;overflow=hidden;whiteSpace=wrap;html=1;" vertex="1" parent="djq6IaJUHDn9vAA4K8EV-129">
          <mxGeometry width="30" height="30" as="geometry">
            <mxRectangle width="30" height="30" as="alternateBounds" />
          </mxGeometry>
        </mxCell>
        <mxCell id="djq6IaJUHDn9vAA4K8EV-131" value="name TEXT NOT NULL" style="shape=partialRectangle;connectable=0;fillColor=none;top=0;left=0;bottom=0;right=0;align=left;spacingLeft=6;overflow=hidden;whiteSpace=wrap;html=1;" vertex="1" parent="djq6IaJUHDn9vAA4K8EV-129">
          <mxGeometry x="30" width="450" height="30" as="geometry">
            <mxRectangle width="450" height="30" as="alternateBounds" />
          </mxGeometry>
        </mxCell>
        <mxCell id="djq6IaJUHDn9vAA4K8EV-132" value="" style="shape=tableRow;horizontal=0;startSize=0;swimlaneHead=0;swimlaneBody=0;fillColor=none;collapsible=0;dropTarget=0;points=[[0,0.5],[1,0.5]];portConstraint=eastwest;top=0;left=0;right=0;bottom=0;" vertex="1" parent="djq6IaJUHDn9vAA4K8EV-125">
          <mxGeometry y="90" width="480" height="30" as="geometry" />
        </mxCell>
        <mxCell id="djq6IaJUHDn9vAA4K8EV-133" value="" style="shape=partialRectangle;connectable=0;fillColor=none;top=0;left=0;bottom=0;right=0;editable=1;overflow=hidden;whiteSpace=wrap;html=1;" vertex="1" parent="djq6IaJUHDn9vAA4K8EV-132">
          <mxGeometry width="30" height="30" as="geometry">
            <mxRectangle width="30" height="30" as="alternateBounds" />
          </mxGeometry>
        </mxCell>
        <mxCell id="djq6IaJUHDn9vAA4K8EV-134" value="price_cents INTEGER NOT NULL" style="shape=partialRectangle;connectable=0;fillColor=none;top=0;left=0;bottom=0;right=0;align=left;spacingLeft=6;overflow=hidden;whiteSpace=wrap;html=1;" vertex="1" parent="djq6IaJUHDn9vAA4K8EV-132">
          <mxGeometry x="30" width="450" height="30" as="geometry">
            <mxRectangle width="450" height="30" as="alternateBounds" />
          </mxGeometry>
        </mxCell>
        <mxCell id="djq6IaJUHDn9vAA4K8EV-135" value="" style="shape=tableRow;horizontal=0;startSize=0;swimlaneHead=0;swimlaneBody=0;fillColor=none;collapsible=0;dropTarget=0;points=[[0,0.5],[1,0.5]];portConstraint=eastwest;top=0;left=0;right=0;bottom=0;" vertex="1" parent="djq6IaJUHDn9vAA4K8EV-125">
          <mxGeometry y="120" width="480" height="30" as="geometry" />
        </mxCell>
        <mxCell id="djq6IaJUHDn9vAA4K8EV-136" value="" style="shape=partialRectangle;connectable=0;fillColor=none;top=0;left=0;bottom=0;right=0;editable=1;overflow=hidden;whiteSpace=wrap;html=1;" vertex="1" parent="djq6IaJUHDn9vAA4K8EV-135">
          <mxGeometry width="30" height="30" as="geometry">
            <mxRectangle width="30" height="30" as="alternateBounds" />
          </mxGeometry>
        </mxCell>
        <mxCell id="djq6IaJUHDn9vAA4K8EV-137" value="duration" style="shape=partialRectangle;connectable=0;fillColor=none;top=0;left=0;bottom=0;right=0;align=left;spacingLeft=6;overflow=hidden;whiteSpace=wrap;html=1;" vertex="1" parent="djq6IaJUHDn9vAA4K8EV-135">
          <mxGeometry x="30" width="450" height="30" as="geometry">
            <mxRectangle width="450" height="30" as="alternateBounds" />
          </mxGeometry>
        </mxCell>
        <mxCell id="djq6IaJUHDn9vAA4K8EV-191" value="" style="edgeStyle=orthogonalEdgeStyle;fontSize=12;html=1;endArrow=ERoneToMany;rounded=0;strokeWidth=2;endSize=10;exitX=1;exitY=0.5;exitDx=0;exitDy=0;entryX=0;entryY=0.5;entryDx=0;entryDy=0;" edge="1" parent="1" source="djq6IaJUHDn9vAA4K8EV-16" target="djq6IaJUHDn9vAA4K8EV-51">
          <mxGeometry width="100" height="100" relative="1" as="geometry">
            <mxPoint x="-240" y="705.04" as="sourcePoint" />
            <mxPoint x="-80" y="385.03999999999996" as="targetPoint" />
            <Array as="points">
              <mxPoint x="-640" y="485" />
              <mxPoint x="-640" y="605" />
            </Array>
          </mxGeometry>
        </mxCell>
        <mxCell id="djq6IaJUHDn9vAA4K8EV-192" value="" style="edgeStyle=orthogonalEdgeStyle;fontSize=12;html=1;endArrow=ERoneToMany;rounded=0;strokeWidth=2;endSize=10;exitX=1;exitY=0.5;exitDx=0;exitDy=0;entryX=0;entryY=0.5;entryDx=0;entryDy=0;" edge="1" parent="1" source="djq6IaJUHDn9vAA4K8EV-29" target="djq6IaJUHDn9vAA4K8EV-90">
          <mxGeometry width="100" height="100" relative="1" as="geometry">
            <mxPoint x="40" y="565" as="sourcePoint" />
            <mxPoint x="200" y="245" as="targetPoint" />
            <Array as="points">
              <mxPoint y="135" />
              <mxPoint y="165" />
            </Array>
          </mxGeometry>
        </mxCell>
        <mxCell id="djq6IaJUHDn9vAA4K8EV-193" value="" style="edgeStyle=orthogonalEdgeStyle;fontSize=12;html=1;endArrow=ERoneToMany;rounded=0;strokeWidth=2;endSize=10;exitX=1;exitY=0.5;exitDx=0;exitDy=0;entryX=0;entryY=0.5;entryDx=0;entryDy=0;" edge="1" parent="1" source="djq6IaJUHDn9vAA4K8EV-29" target="djq6IaJUHDn9vAA4K8EV-59">
          <mxGeometry width="100" height="100" relative="1" as="geometry">
            <mxPoint x="-280" y="930" as="sourcePoint" />
            <mxPoint x="-120" y="610" as="targetPoint" />
            <Array as="points">
              <mxPoint y="135" />
              <mxPoint y="555" />
            </Array>
          </mxGeometry>
        </mxCell>
        <mxCell id="djq6IaJUHDn9vAA4K8EV-196" value="" style="edgeStyle=orthogonalEdgeStyle;fontSize=12;html=1;endArrow=ERoneToMany;rounded=0;strokeWidth=2;endSize=10;exitX=1;exitY=0.5;exitDx=0;exitDy=0;entryX=0;entryY=0.5;entryDx=0;entryDy=0;" edge="1" parent="1" source="djq6IaJUHDn9vAA4K8EV-56" target="djq6IaJUHDn9vAA4K8EV-45">
          <mxGeometry width="100" height="100" relative="1" as="geometry">
            <mxPoint x="850" y="440" as="sourcePoint" />
            <mxPoint x="1010" y="120" as="targetPoint" />
            <Array as="points">
              <mxPoint x="640" y="525" />
              <mxPoint x="640" y="575" />
            </Array>
          </mxGeometry>
        </mxCell>
        <mxCell id="djq6IaJUHDn9vAA4K8EV-197" value="conversation_participants" style="shape=table;startSize=30;container=1;collapsible=1;childLayout=tableLayout;fixedRows=1;rowLines=0;fontStyle=1;align=center;resizeLast=1;html=1;" vertex="1" parent="1">
          <mxGeometry x="760" y="720" width="480" height="120" as="geometry" />
        </mxCell>
        <mxCell id="djq6IaJUHDn9vAA4K8EV-198" value="" style="shape=tableRow;horizontal=0;startSize=0;swimlaneHead=0;swimlaneBody=0;fillColor=none;collapsible=0;dropTarget=0;points=[[0,0.5],[1,0.5]];portConstraint=eastwest;top=0;left=0;right=0;bottom=1;" vertex="1" parent="djq6IaJUHDn9vAA4K8EV-197">
          <mxGeometry y="30" width="480" height="30" as="geometry" />
        </mxCell>
        <mxCell id="djq6IaJUHDn9vAA4K8EV-199" value="PK" style="shape=partialRectangle;connectable=0;fillColor=none;top=0;left=0;bottom=0;right=0;fontStyle=1;overflow=hidden;whiteSpace=wrap;html=1;" vertex="1" parent="djq6IaJUHDn9vAA4K8EV-198">
          <mxGeometry width="30" height="30" as="geometry">
            <mxRectangle width="30" height="30" as="alternateBounds" />
          </mxGeometry>
        </mxCell>
        <mxCell id="djq6IaJUHDn9vAA4K8EV-200" value="id" style="shape=partialRectangle;connectable=0;fillColor=none;top=0;left=0;bottom=0;right=0;align=left;spacingLeft=6;fontStyle=5;overflow=hidden;whiteSpace=wrap;html=1;" vertex="1" parent="djq6IaJUHDn9vAA4K8EV-198">
          <mxGeometry x="30" width="450" height="30" as="geometry">
            <mxRectangle width="450" height="30" as="alternateBounds" />
          </mxGeometry>
        </mxCell>
        <mxCell id="djq6IaJUHDn9vAA4K8EV-201" value="" style="shape=tableRow;horizontal=0;startSize=0;swimlaneHead=0;swimlaneBody=0;fillColor=none;collapsible=0;dropTarget=0;points=[[0,0.5],[1,0.5]];portConstraint=eastwest;top=0;left=0;right=0;bottom=0;" vertex="1" parent="djq6IaJUHDn9vAA4K8EV-197">
          <mxGeometry y="60" width="480" height="30" as="geometry" />
        </mxCell>
        <mxCell id="djq6IaJUHDn9vAA4K8EV-202" value="FK" style="shape=partialRectangle;connectable=0;fillColor=none;top=0;left=0;bottom=0;right=0;editable=1;overflow=hidden;whiteSpace=wrap;html=1;" vertex="1" parent="djq6IaJUHDn9vAA4K8EV-201">
          <mxGeometry width="30" height="30" as="geometry">
            <mxRectangle width="30" height="30" as="alternateBounds" />
          </mxGeometry>
        </mxCell>
        <mxCell id="djq6IaJUHDn9vAA4K8EV-203" value="conversation_id INTEGER REFERENCES listings(id) NOT NULL" style="shape=partialRectangle;connectable=0;fillColor=none;top=0;left=0;bottom=0;right=0;align=left;spacingLeft=6;overflow=hidden;whiteSpace=wrap;html=1;" vertex="1" parent="djq6IaJUHDn9vAA4K8EV-201">
          <mxGeometry x="30" width="450" height="30" as="geometry">
            <mxRectangle width="450" height="30" as="alternateBounds" />
          </mxGeometry>
        </mxCell>
        <mxCell id="djq6IaJUHDn9vAA4K8EV-204" value="" style="shape=tableRow;horizontal=0;startSize=0;swimlaneHead=0;swimlaneBody=0;fillColor=none;collapsible=0;dropTarget=0;points=[[0,0.5],[1,0.5]];portConstraint=eastwest;top=0;left=0;right=0;bottom=0;" vertex="1" parent="djq6IaJUHDn9vAA4K8EV-197">
          <mxGeometry y="90" width="480" height="30" as="geometry" />
        </mxCell>
        <mxCell id="djq6IaJUHDn9vAA4K8EV-205" value="FK" style="shape=partialRectangle;connectable=0;fillColor=none;top=0;left=0;bottom=0;right=0;editable=1;overflow=hidden;whiteSpace=wrap;html=1;" vertex="1" parent="djq6IaJUHDn9vAA4K8EV-204">
          <mxGeometry width="30" height="30" as="geometry">
            <mxRectangle width="30" height="30" as="alternateBounds" />
          </mxGeometry>
        </mxCell>
        <mxCell id="djq6IaJUHDn9vAA4K8EV-206" value="user_id INTEGER REFERENCES users(id) NOT NULL&lt;br&gt;(denormalized - do we want this?)" style="shape=partialRectangle;connectable=0;fillColor=none;top=0;left=0;bottom=0;right=0;align=left;spacingLeft=6;overflow=hidden;whiteSpace=wrap;html=1;" vertex="1" parent="djq6IaJUHDn9vAA4K8EV-204">
          <mxGeometry x="30" width="450" height="30" as="geometry">
            <mxRectangle width="450" height="30" as="alternateBounds" />
          </mxGeometry>
        </mxCell>
        <mxCell id="djq6IaJUHDn9vAA4K8EV-210" value="" style="edgeStyle=orthogonalEdgeStyle;fontSize=12;html=1;endArrow=ERoneToMany;rounded=0;strokeWidth=2;endSize=10;exitX=1;exitY=0.5;exitDx=0;exitDy=0;entryX=0;entryY=0.5;entryDx=0;entryDy=0;" edge="1" parent="1" source="djq6IaJUHDn9vAA4K8EV-16" target="djq6IaJUHDn9vAA4K8EV-204">
          <mxGeometry width="100" height="100" relative="1" as="geometry">
            <mxPoint x="-650" y="880.04" as="sourcePoint" />
            <mxPoint x="-490" y="560.04" as="targetPoint" />
            <Array as="points">
              <mxPoint x="-640" y="485" />
              <mxPoint x="-640" y="825" />
            </Array>
          </mxGeometry>
        </mxCell>
        <mxCell id="djq6IaJUHDn9vAA4K8EV-211" value="" style="edgeStyle=orthogonalEdgeStyle;fontSize=12;html=1;endArrow=ERoneToMany;rounded=0;strokeWidth=2;endSize=10;exitX=1;exitY=0.5;exitDx=0;exitDy=0;entryX=0;entryY=0.5;entryDx=0;entryDy=0;" edge="1" parent="1" source="djq6IaJUHDn9vAA4K8EV-56" target="djq6IaJUHDn9vAA4K8EV-201">
          <mxGeometry width="100" height="100" relative="1" as="geometry">
            <mxPoint x="390" y="1030.04" as="sourcePoint" />
            <mxPoint x="550" y="710.04" as="targetPoint" />
            <Array as="points">
              <mxPoint x="640" y="525" />
              <mxPoint x="640" y="795" />
            </Array>
          </mxGeometry>
        </mxCell>
        <mxCell id="djq6IaJUHDn9vAA4K8EV-213" value="" style="edgeStyle=orthogonalEdgeStyle;fontSize=12;html=1;endArrow=ERoneToMany;rounded=0;strokeWidth=2;endSize=10;exitX=1;exitY=0.5;exitDx=0;exitDy=0;entryX=0;entryY=0.5;entryDx=0;entryDy=0;" edge="1" parent="1" source="djq6IaJUHDn9vAA4K8EV-16" target="djq6IaJUHDn9vAA4K8EV-116">
          <mxGeometry width="100" height="100" relative="1" as="geometry">
            <mxPoint x="-650" y="1450" as="sourcePoint" />
            <mxPoint x="-490" y="1130" as="targetPoint" />
            <Array as="points">
              <mxPoint x="-640" y="485" />
              <mxPoint x="-640" y="995" />
            </Array>
          </mxGeometry>
        </mxCell>
        <mxCell id="djq6IaJUHDn9vAA4K8EV-214" value="" style="edgeStyle=orthogonalEdgeStyle;fontSize=12;html=1;endArrow=ERoneToMany;rounded=0;strokeWidth=2;endSize=10;exitX=1;exitY=0.5;exitDx=0;exitDy=0;entryX=0;entryY=0.5;entryDx=0;entryDy=0;" edge="1" parent="1" source="djq6IaJUHDn9vAA4K8EV-29" target="djq6IaJUHDn9vAA4K8EV-8">
          <mxGeometry width="100" height="100" relative="1" as="geometry">
            <mxPoint x="20" y="1010" as="sourcePoint" />
            <mxPoint x="180" y="690" as="targetPoint" />
            <Array as="points">
              <mxPoint y="135" />
              <mxPoint y="1025" />
            </Array>
          </mxGeometry>
        </mxCell>
        <mxCell id="djq6IaJUHDn9vAA4K8EV-215" value="" style="edgeStyle=orthogonalEdgeStyle;fontSize=12;html=1;endArrow=ERoneToMany;rounded=0;strokeWidth=2;endSize=10;exitX=1;exitY=0.5;exitDx=0;exitDy=0;entryX=0;entryY=0.5;entryDx=0;entryDy=0;" edge="1" parent="1" source="djq6IaJUHDn9vAA4K8EV-113" target="djq6IaJUHDn9vAA4K8EV-5">
          <mxGeometry width="100" height="100" relative="1" as="geometry">
            <mxPoint x="70" y="960" as="sourcePoint" />
            <mxPoint x="230" y="640" as="targetPoint" />
            <Array as="points">
              <mxPoint x="-10" y="965" />
              <mxPoint x="-10" y="995" />
            </Array>
          </mxGeometry>
        </mxCell>
      </root>
    </mxGraphModel>
  </diagram>
</mxfile>
